<?xml version="1.0" encoding="UTF-8"?>
<!DOCTYPE svg PUBLIC "-//W3C//DTD SVG 1.1//EN" "http://www.w3.org/Graphics/SVG/1.1/DTD/svg11.dtd">
<!-- Creator: CorelDRAW 2019 (64-Bit Evaluation Version) -->
<svg xmlns="http://www.w3.org/2000/svg" xml:space="preserve" width="140.487mm" height="16.3621mm" version="1.1" shape-rendering="geometricPrecision" text-rendering="geometricPrecision" image-rendering="optimizeQuality" fill-rule="evenodd" clip-rule="evenodd"
viewBox="0 0 14048.72 1636.21"
 xmlns:xlink="http://www.w3.org/1999/xlink">
 <g id="Layer_x0020_1">
  <metadata id="CorelCorpID_0Corel-Layer"/>
  <g id="_2447376675392">
   <path fill="#B3854C" d="M671.05 395.09l56.31 29.75c25.24,-33.22 28.96,-96.7 79.46,-128.6 44.19,-27.91 83.07,63.46 99.24,95.36 22.92,45.22 45.86,92.4 65.11,140.6 23.19,58.03 31.63,110.01 87.98,118.54 -10.89,-44.09 -28.15,-91.04 -42.24,-136.53l-87.43 -267.9c-16.06,-45.51 -31.99,-87.87 -47.71,-133.9 -10.89,-31.92 -36.55,-114.45 -64.35,-112.37 -21.57,1.61 -27.3,33.5 -34.9,54.27 -8.5,23.28 -15.2,44.38 -23.18,68.65l-66.36 200.69c-6.95,20.37 -18.78,50.91 -21.93,71.44z"/>
   <path fill="#B3854C" d="M1015.42 409.69l17.6 63.61c46.45,-7.15 95.5,-49.88 153.35,-30.2 28.63,9.74 22.29,39.69 15.73,70.44 -8.3,38.91 -61.2,176.03 -76.85,211.39 -9.83,22.2 -21.27,42.69 -29.51,65.69 -15.37,42.9 -10.91,42.49 2.99,77.88 11.65,-8.7 27.53,-45.26 35.02,-58.26 12.34,-21.38 21.72,-40.34 33.64,-61.72 66.85,-119.91 129.86,-245.79 192.19,-369.26 9.48,-18.79 62.46,-116.86 41.76,-136.05 -15.38,-14.27 -53.87,8.72 -67.59,15.17l-253.19 121.18c-16.43,7.95 -49.8,25.98 -65.14,30.13z"/>
   <path fill="#7066AC" d="M681.16 1104.69c-21.18,-55.69 -32.61,-113.68 -85.92,-119.28 2.62,20.55 13.94,51.06 20.26,71.21 46.66,148.92 124.63,408.17 178,534 48.6,114.6 75.24,-15.14 97.88,-80.73 8.94,-25.86 86.35,-246.14 87.95,-267.9 -10.22,-7.45 -43.95,-25.68 -58.52,-28.5 -6.05,20.89 -21.59,53.8 -31.75,73.12 -58.64,111.52 -102.53,45.35 -143.3,-41.05 -20.84,-44.16 -46.55,-93.39 -64.6,-140.87z"/>
   <path fill="#7066AC" d="M611.48 1165.21c-42.02,7.7 -98.82,50.6 -152.1,32.14 -14.59,-5.05 -19.55,-10.28 -20.93,-28.78 -2.61,-35.36 16.97,-86.71 28.01,-117.3 16.9,-46.87 33.41,-95.77 53.22,-140.15 9.28,-20.81 21.44,-43.58 28.96,-66.15 11.29,-33.88 8.67,-47.56 -6.25,-74.21 -26.81,34.64 -243.16,460.43 -278.17,538.32 -62.26,138.52 8.03,90.54 81.81,57.42l284.82 -140.22 -19.37 -61.07z"/>
   <path fill="#4CA84E" d="M414.8 628.75l62.57 -18.47c-5.67,-40.62 -101.32,-202.58 41.38,-168.66 43.75,10.4 169,58.28 209.87,75.5 69.35,29.23 86.74,53.48 143.54,25.21 -17.44,-21.16 -446.41,-238.94 -534.53,-278.89 -27.41,-12.42 -54.15,-29.28 -90.43,-23.41 -16.63,25.96 14.65,73.86 26.97,99.12 16.68,34.17 30.63,64.05 46.91,97.36 15.58,31.89 31.3,64.08 46.23,95.02 15.58,32.31 35.23,66.3 47.49,97.22z"/>
   <path fill="#BD4762" d="M1218.26 723.41c10.51,8.67 53.65,25.06 69.63,32.49 23.7,11.04 42.7,27.84 54.92,46.05 31.05,46.26 -60.54,82.91 -92,97.56 -48.22,22.47 -92.32,44.76 -141.58,63.99 -54.92,21.4 -116.24,31.57 -121.8,86.14 43.85,-4.37 517.09,-161.12 543.51,-170.62 32.37,-11.66 118.25,-35.21 107.16,-68.13 -6.36,-18.91 -101.73,-46.23 -124.19,-54.26 -21.03,-7.52 -250.88,-88.2 -267.47,-90.42 -6.89,8.49 -26.93,47.11 -28.18,57.2z"/>
   <path fill="#6FBFAC" d="M424.1 910.87c-19.82,-6.23 -52.18,-22.33 -72.28,-32.5 -25.98,-13.14 -43.02,-26.71 -55.79,-48.34 -25.19,-42.68 67.12,-81.89 96.29,-95.34 48.1,-22.15 92.5,-45.62 141.45,-64.17 23.74,-9 53.81,-18.71 75.16,-29.23 32.48,-16.02 38.88,-27.42 45.81,-56.94 -28.04,5.61 -59.01,17.16 -86.56,25.33l-253.21 78.48c-54.7,17.68 -111.18,35.56 -165.88,54.73 -28.83,10.1 -53.94,19.08 -81.08,29.28 -51.22,19.26 -107.67,48.27 -29.09,75.58 64.15,22.3 334.47,120.13 357.41,120.87 7.74,-16.77 22.74,-40.46 27.77,-57.75z"/>
   <path fill="#9759A2" d="M1170.62 1036.41c18.33,36.68 45.05,109.75 30.45,150.96 -9.92,28.03 -46.68,20.68 -73.61,13.7 -45.37,-11.73 -169.13,-60.78 -209.95,-78.21 -63.29,-27.04 -87.25,-53.41 -140.37,-25.35 12.5,16.31 406.53,223.21 453.72,245.94 26.71,12.87 139.27,75.19 165,63.04 24.39,-11.52 -11.52,-74.46 -23.66,-99.93 -28.23,-59.24 -119.96,-246.18 -138.14,-290.78 -14.2,0.79 -54.19,13.02 -63.44,20.63z"/>
  </g>
  <path fill="#464E62" fill-rule="nonzero" d="M2143.21 865.73c0,49.57 -17.93,88.5 -53.54,117.06 -35.6,28.56 -85.29,42.77 -148.81,42.77 -58.53,0 -110.4,-11.01 -155.35,-33.04l0 -108.09c37.01,16.52 68.39,28.18 94,34.96 25.61,6.79 49.05,10.12 70.31,10.12 25.62,0 45.21,-4.86 58.79,-14.6 13.7,-9.73 20.49,-24.33 20.49,-43.54 0,-10.76 -2.95,-20.37 -8.97,-28.69 -6.02,-8.45 -14.85,-16.52 -26.51,-24.2 -11.65,-7.82 -35.35,-20.24 -71.08,-37.15 -33.55,-15.88 -58.78,-30.99 -75.56,-45.46 -16.78,-14.47 -30.1,-31.38 -40.08,-50.72 -10.12,-19.21 -15.12,-41.75 -15.12,-67.49 0,-48.54 16.52,-86.7 49.44,-114.49 32.91,-27.79 78.38,-41.63 136.39,-41.63 28.56,0 55.71,3.33 81.71,10.12 25.87,6.79 52.89,16.27 81.2,28.56l-37.53 90.42c-29.33,-12.04 -53.53,-20.36 -72.61,-25.1 -19.21,-4.74 -38.04,-7.18 -56.48,-7.18 -22.03,0 -38.93,5.13 -50.72,15.37 -11.78,10.25 -17.67,23.7 -17.67,40.22 0,10.24 2.43,19.21 7.17,26.76 4.74,7.69 12.3,14.99 22.67,22.16 10.37,7.17 34.96,19.98 73.77,38.42 51.35,24.59 86.44,49.18 105.53,73.77 18.95,24.72 28.56,54.81 28.56,90.67z"/>
  <path id="1" fill="#464E62" fill-rule="nonzero" d="M2410.1 934.12c20.11,0 44.06,-4.35 72.11,-13.19l0 85.42c-28.56,12.81 -63.53,19.21 -105.02,19.21 -45.85,0 -79.15,-11.52 -100.02,-34.7 -20.88,-23.18 -31.38,-57.89 -31.38,-104.12l0 -202.35 -54.69 0 0 -48.54 63.01 -38.3 33.05 -88.49 73.12 0 0 89.26 117.44 0 0 86.07 -117.44 0 0 202.09c0,16.27 4.61,28.3 13.71,35.99 9.09,7.81 21.13,11.65 36.11,11.65z"/>
  <path id="2" fill="#464E62" fill-rule="nonzero" d="M2833.37 1017.88l-22.16 -56.99 -2.94 0c-19.34,24.33 -39.19,41.24 -59.55,50.59 -20.37,9.35 -46.88,14.08 -79.66,14.08 -40.35,0 -71.98,-11.52 -95.16,-34.57 -23.18,-23.06 -34.71,-55.84 -34.71,-98.36 0,-44.57 15.63,-77.48 46.75,-98.62 31.12,-21.13 78.12,-32.91 140.88,-35.09l72.74 -2.3 0 -18.44c0,-42.52 -21.77,-63.78 -65.32,-63.78 -33.42,0 -72.87,10.11 -118.08,30.35l-37.91 -77.1c48.29,-25.23 101.82,-37.78 160.6,-37.78 56.23,0 99.39,12.29 129.36,36.76 30.09,24.46 45.08,61.73 45.08,111.8l0 279.45 -79.92 0zm-33.81 -194.41l-44.18 1.54c-33.3,1.02 -58.15,6.91 -74.41,18.05 -16.27,11.02 -24.34,27.8 -24.34,50.34 0,32.27 18.57,48.41 55.59,48.41 26.51,0 47.64,-7.69 63.52,-22.93 15.88,-15.24 23.82,-35.6 23.82,-60.83l0 -34.58z"/>
  <path id="3" fill="#464E62" fill-rule="nonzero" d="M3265.1 590.64c15.5,0 28.43,1.15 38.68,3.33l-8.58 107.32c-9.35,-2.43 -20.5,-3.71 -33.82,-3.71 -36.5,0 -64.93,9.35 -85.29,28.17 -20.36,18.7 -30.61,44.95 -30.61,78.77l0 213.36 -114.37 0 0 -419.56 86.71 0 16.78 70.7 5.63 0c13.06,-23.44 30.61,-42.39 52.77,-56.87 22.02,-14.34 46.1,-21.51 72.1,-21.51z"/>
  <path id="4" fill="#464E62" fill-rule="nonzero" d="M3912.74 865.73c0,49.57 -17.93,88.5 -53.54,117.06 -35.6,28.56 -85.29,42.77 -148.81,42.77 -58.53,0 -110.4,-11.01 -155.35,-33.04l0 -108.09c37.01,16.52 68.39,28.18 94,34.96 25.61,6.79 49.05,10.12 70.31,10.12 25.62,0 45.21,-4.86 58.79,-14.6 13.7,-9.73 20.49,-24.33 20.49,-43.54 0,-10.76 -2.95,-20.37 -8.97,-28.69 -6.02,-8.45 -14.85,-16.52 -26.51,-24.2 -11.65,-7.82 -35.35,-20.24 -71.08,-37.15 -33.55,-15.88 -58.78,-30.99 -75.56,-45.46 -16.78,-14.47 -30.1,-31.38 -40.08,-50.72 -10.12,-19.21 -15.12,-41.75 -15.12,-67.49 0,-48.54 16.52,-86.7 49.44,-114.49 32.91,-27.79 78.38,-41.63 136.39,-41.63 28.56,0 55.71,3.33 81.71,10.12 25.87,6.79 52.89,16.27 81.2,28.56l-37.53 90.42c-29.33,-12.04 -53.53,-20.36 -72.61,-25.1 -19.21,-4.74 -38.04,-7.18 -56.48,-7.18 -22.03,0 -38.93,5.13 -50.72,15.37 -11.78,10.25 -17.67,23.7 -17.67,40.22 0,10.24 2.43,19.21 7.17,26.76 4.74,7.69 12.3,14.99 22.67,22.16 10.37,7.17 34.96,19.98 73.77,38.42 51.35,24.59 86.44,49.18 105.53,73.77 18.95,24.72 28.56,54.81 28.56,90.67z"/>
  <path id="5" fill="#464E62" fill-rule="nonzero" d="M4233.42 1025.56c-49.3,0 -87.98,-17.93 -116.03,-53.66l-5.89 0c3.97,34.97 5.89,55.2 5.89,60.71l0 169.69 -114.37 0 0 -603.98 92.98 0 16.14 54.56 5.25 0c26.9,-41.49 66.47,-62.24 119.11,-62.24 49.43,0 88.24,19.08 116.28,57.37 28.05,38.3 42.01,91.45 42.01,159.58 0,44.7 -6.53,83.63 -19.72,116.67 -13.06,33.04 -31.76,58.14 -56.1,75.43 -24.2,17.29 -52.76,25.87 -85.55,25.87zm-33.81 -343.48c-28.17,0 -48.92,8.71 -61.86,26 -13.06,17.42 -19.85,46.1 -20.36,86.19l0 12.29c0,45.09 6.79,77.23 20.11,96.83 13.45,19.46 34.58,29.2 63.65,29.2 51.36,0 76.97,-42.27 76.97,-126.79 0,-41.24 -6.28,-72.11 -18.96,-92.73 -12.67,-20.62 -32.4,-30.99 -59.55,-30.99z"/>
  <path id="6" fill="#464E62" fill-rule="nonzero" d="M4663.1 672.09c-24.34,0 -43.29,7.69 -57.12,23.05 -13.71,15.37 -21.65,37.14 -23.7,65.32l160.73 0c-0.51,-28.18 -7.81,-49.95 -22.15,-65.32 -14.22,-15.36 -33.56,-23.05 -57.76,-23.05zm16.13 353.47c-67.62,0 -120.38,-18.69 -158.42,-55.96 -38.04,-37.27 -56.99,-90.04 -56.99,-158.3 0,-70.31 17.54,-124.61 52.64,-163.03 35.21,-38.42 83.75,-57.63 145.87,-57.63 59.29,0 105.4,16.9 138.44,50.59 33.04,33.81 49.56,80.3 49.56,139.85l0 55.45 -270.61 0c1.28,32.53 10.89,58.02 28.82,76.33 18.06,18.32 43.41,27.41 75.94,27.41 25.23,0 49.18,-2.69 71.72,-7.94 22.41,-5.25 45.98,-13.58 70.57,-25.1l0 88.62c-20.11,9.99 -41.5,17.55 -64.29,22.41 -22.67,4.87 -50.46,7.3 -83.25,7.3z"/>
  <path id="7" fill="#464E62" fill-rule="nonzero" d="M5113.52 1025.56c-130.5,0 -195.69,-71.71 -195.69,-215.03 0,-71.33 17.67,-125.76 53.15,-163.41 35.6,-37.66 86.45,-56.48 152.66,-56.48 48.54,0 92.08,9.48 130.63,28.43l-33.81 88.5c-18.06,-7.18 -34.71,-13.19 -50.21,-17.81 -15.49,-4.61 -30.99,-6.91 -46.48,-6.91 -59.56,0 -89.27,42.26 -89.27,126.79 0,81.96 29.71,122.95 89.27,122.95 21.9,0 42.26,-2.95 61.08,-8.84 18.7,-5.89 37.53,-15.11 56.23,-27.54l0 98.11c-18.44,11.78 -37.14,19.97 -56.1,24.46 -18.82,4.48 -42.64,6.78 -71.46,6.78z"/>
  <path id="8" fill="#464E62" fill-rule="nonzero" d="M5333.55 489.72c0,-37.27 20.75,-55.84 62.24,-55.84 41.49,0 62.24,18.57 62.24,55.84 0,17.8 -5.12,31.63 -15.49,41.49 -10.38,9.87 -26,14.86 -46.75,14.86 -41.49,0 -62.24,-18.83 -62.24,-56.35zm119.23 528.16l-114.37 0 0 -419.56 114.37 0 0 419.56z"/>
  <path id="9" fill="#464E62" fill-rule="nonzero" d="M5839.3 1017.88l-22.16 -56.99 -2.94 0c-19.34,24.33 -39.19,41.24 -59.55,50.59 -20.37,9.35 -46.88,14.08 -79.66,14.08 -40.35,0 -71.98,-11.52 -95.16,-34.57 -23.18,-23.06 -34.71,-55.84 -34.71,-98.36 0,-44.57 15.63,-77.48 46.75,-98.62 31.12,-21.13 78.12,-32.91 140.88,-35.09l72.74 -2.3 0 -18.44c0,-42.52 -21.77,-63.78 -65.32,-63.78 -33.42,0 -72.87,10.11 -118.08,30.35l-37.91 -77.1c48.29,-25.23 101.82,-37.78 160.6,-37.78 56.23,0 99.39,12.29 129.36,36.76 30.09,24.46 45.08,61.73 45.08,111.8l0 279.45 -79.92 0zm-33.81 -194.41l-44.18 1.54c-33.3,1.02 -58.15,6.91 -74.41,18.05 -16.27,11.02 -24.34,27.8 -24.34,50.34 0,32.27 18.57,48.41 55.59,48.41 26.51,0 47.64,-7.69 63.52,-22.93 15.88,-15.24 23.82,-35.6 23.82,-60.83l0 -34.58z"/>
  <polygon id="10" fill="#464E62" fill-rule="nonzero" points="6151.41,1017.88 6037.04,1017.88 6037.04,433.88 6151.41,433.88 "/>
  <path id="11" fill="#464E62" fill-rule="nonzero" d="M6266.68 489.72c0,-37.27 20.75,-55.84 62.24,-55.84 41.49,0 62.24,18.57 62.24,55.84 0,17.8 -5.12,31.63 -15.49,41.49 -10.38,9.87 -26,14.86 -46.75,14.86 -41.49,0 -62.24,-18.83 -62.24,-56.35zm119.23 528.16l-114.37 0 0 -419.56 114.37 0 0 419.56z"/>
  <path id="12" fill="#464E62" fill-rule="nonzero" d="M6682.65 934.12c20.11,0 44.06,-4.35 72.11,-13.19l0 85.42c-28.56,12.81 -63.53,19.21 -105.02,19.21 -45.85,0 -79.15,-11.52 -100.02,-34.7 -20.88,-23.18 -31.38,-57.89 -31.38,-104.12l0 -202.35 -54.69 0 0 -48.54 63.01 -38.3 33.05 -88.49 73.12 0 0 89.26 117.44 0 0 86.07 -117.44 0 0 202.09c0,16.27 4.61,28.3 13.71,35.99 9.09,7.81 21.13,11.65 36.11,11.65z"/>
  <path id="13" fill="#464E62" fill-rule="nonzero" d="M6779.47 598.32l125.38 0 79.15 236.04c6.79,20.49 11.4,44.69 13.96,72.74l2.17 0c2.82,-25.74 8.2,-50.08 16.14,-72.74l77.74 -236.04 122.69 0 -177.5 473.09c-16.27,43.8 -39.45,76.59 -69.67,98.23 -30.1,21.77 -65.32,32.66 -105.66,32.66 -19.72,0 -39.06,-2.18 -58.15,-6.4l0 -90.68c13.84,3.21 28.82,4.87 45.08,4.87 20.24,0 37.91,-6.15 53.03,-18.57 15.24,-12.42 27.02,-31.12 35.47,-56.09l6.79 -20.62 -166.62 -416.49z"/>
  <path id="14" fill="#464E62" fill-rule="nonzero" d="M7718.22 558.36c-43.8,0 -77.61,16.4 -101.69,49.31 -23.95,32.92 -35.99,78.76 -35.99,137.55 0,122.31 45.85,183.52 137.68,183.52 38.42,0 85.17,-9.6 139.85,-28.94l0 97.59c-44.95,18.83 -95.28,28.17 -150.74,28.17 -79.78,0 -140.75,-24.2 -183.01,-72.61 -42.26,-48.41 -63.39,-117.95 -63.39,-208.5 0,-56.99 10.37,-106.94 31.12,-149.84 20.74,-42.9 50.59,-75.82 89.39,-98.74 38.93,-22.93 84.53,-34.33 136.78,-34.33 53.28,0 106.68,12.94 160.47,38.68l-37.52 94.52c-20.49,-9.74 -41.11,-18.19 -61.86,-25.49 -20.75,-7.3 -41.11,-10.89 -61.09,-10.89z"/>
  <path id="15" fill="#464E62" fill-rule="nonzero" d="M8352.93 1017.88l-114.49 0 0 -245c0,-60.58 -22.41,-90.8 -67.5,-90.8 -31.88,0 -55.07,10.89 -69.28,32.66 -14.22,21.77 -21.39,56.99 -21.39,105.78l0 197.36 -114.37 0 0 -584 114.37 0 0 119.11c0,9.22 -0.9,30.99 -2.56,65.31l-2.69 33.81 6.02 0c25.49,-40.98 65.96,-61.47 121.54,-61.47 49.18,0 86.57,13.19 112.06,39.7 25.49,26.51 38.29,64.55 38.29,114.11l0 273.43z"/>
  <path id="16" fill="#464E62" fill-rule="nonzero" d="M8644.68 672.09c-24.34,0 -43.29,7.69 -57.12,23.05 -13.71,15.37 -21.65,37.14 -23.7,65.32l160.73 0c-0.51,-28.18 -7.81,-49.95 -22.15,-65.32 -14.22,-15.36 -33.56,-23.05 -57.76,-23.05zm16.13 353.47c-67.62,0 -120.38,-18.69 -158.42,-55.96 -38.04,-37.27 -56.99,-90.04 -56.99,-158.3 0,-70.31 17.54,-124.61 52.64,-163.03 35.21,-38.42 83.75,-57.63 145.87,-57.63 59.29,0 105.4,16.9 138.44,50.59 33.04,33.81 49.56,80.3 49.56,139.85l0 55.45 -270.61 0c1.28,32.53 10.89,58.02 28.82,76.33 18.06,18.32 43.41,27.41 75.94,27.41 25.23,0 49.18,-2.69 71.72,-7.94 22.41,-5.25 45.98,-13.58 70.57,-25.1l0 88.62c-20.11,9.99 -41.5,17.55 -64.29,22.41 -22.67,4.87 -50.46,7.3 -83.25,7.3z"/>
  <path id="17" fill="#464E62" fill-rule="nonzero" d="M9300.52 1017.88l-114.49 0 0 -245c0,-30.22 -5.12,-53.02 -15.24,-68.13 -10.12,-15.11 -26,-22.67 -47.77,-22.67 -29.33,0 -50.59,10.76 -63.78,32.27 -13.32,21.52 -19.98,56.87 -19.98,106.17l0 197.36 -114.37 0 0 -419.56 87.35 0 15.37 53.79 6.4 0c11.27,-19.21 27.54,-34.32 48.8,-45.21 21.25,-10.88 45.72,-16.26 73.25,-16.26 62.76,0 105.27,20.49 127.56,61.47l10.12 0c11.27,-19.46 27.79,-34.58 49.69,-45.33 21.9,-10.76 46.62,-16.14 74.15,-16.14 47.51,0 83.5,12.17 107.84,36.63 24.46,24.33 36.62,63.39 36.62,117.18l0 273.43 -114.88 0 0 -245c0,-30.22 -4.99,-53.02 -15.11,-68.13 -10.24,-15.11 -26.12,-22.67 -47.9,-22.67 -28.04,0 -48.92,9.99 -62.88,29.97 -13.83,20.11 -20.75,51.87 -20.75,95.28l0 210.55z"/>
  <path id="18" fill="#464E62" fill-rule="nonzero" d="M9674.62 489.72c0,-37.27 20.75,-55.84 62.24,-55.84 41.49,0 62.24,18.57 62.24,55.84 0,17.8 -5.12,31.63 -15.49,41.49 -10.38,9.87 -26,14.86 -46.75,14.86 -41.49,0 -62.24,-18.83 -62.24,-56.35zm119.23 528.16l-114.37 0 0 -419.56 114.37 0 0 419.56z"/>
  <path id="19" fill="#464E62" fill-rule="nonzero" d="M10084.19 1025.56c-130.5,0 -195.69,-71.71 -195.69,-215.03 0,-71.33 17.67,-125.76 53.15,-163.41 35.6,-37.66 86.45,-56.48 152.66,-56.48 48.54,0 92.08,9.48 130.63,28.43l-33.81 88.5c-18.06,-7.18 -34.71,-13.19 -50.21,-17.81 -15.49,-4.61 -30.99,-6.91 -46.48,-6.91 -59.56,0 -89.27,42.26 -89.27,126.79 0,81.96 29.71,122.95 89.27,122.95 21.9,0 42.26,-2.95 61.08,-8.84 18.7,-5.89 37.53,-15.11 56.23,-27.54l0 98.11c-18.44,11.78 -37.14,19.97 -56.1,24.46 -18.82,4.48 -42.64,6.78 -71.46,6.78z"/>
  <path id="20" fill="#464E62" fill-rule="nonzero" d="M10575.46 1017.88l-22.16 -56.99 -2.94 0c-19.34,24.33 -39.19,41.24 -59.55,50.59 -20.37,9.35 -46.88,14.08 -79.66,14.08 -40.35,0 -71.98,-11.52 -95.16,-34.57 -23.18,-23.06 -34.71,-55.84 -34.71,-98.36 0,-44.57 15.63,-77.48 46.75,-98.62 31.12,-21.13 78.12,-32.91 140.88,-35.09l72.74 -2.3 0 -18.44c0,-42.52 -21.77,-63.78 -65.32,-63.78 -33.42,0 -72.87,10.11 -118.08,30.35l-37.91 -77.1c48.29,-25.23 101.82,-37.78 160.6,-37.78 56.23,0 99.39,12.29 129.36,36.76 30.09,24.46 45.08,61.73 45.08,111.8l0 279.45 -79.92 0zm-33.81 -194.41l-44.18 1.54c-33.3,1.02 -58.15,6.91 -74.41,18.05 -16.27,11.02 -24.34,27.8 -24.34,50.34 0,32.27 18.57,48.41 55.59,48.41 26.51,0 47.64,-7.69 63.52,-22.93 15.88,-15.24 23.82,-35.6 23.82,-60.83l0 -34.58z"/>
  <polygon id="21" fill="#464E62" fill-rule="nonzero" points="10887.57,1017.88 10773.2,1017.88 10773.2,433.88 10887.57,433.88 "/>
  <path id="22" fill="#464E62" fill-rule="nonzero" d="M11332.62 727.42l38.29 0c35.86,0 62.63,-7.05 80.3,-21.26 17.8,-14.09 26.64,-34.71 26.64,-61.73 0,-27.28 -7.43,-47.39 -22.29,-60.45 -14.85,-12.94 -38.16,-19.47 -70.05,-19.47l-52.89 0 0 162.91zm262.67 -87.09c0,59.04 -18.44,104.25 -55.33,135.5 -36.88,31.25 -89.39,46.87 -157.4,46.87l-49.94 0 0 195.18 -116.29 0 0 -548.65 175.2 0c66.6,0 117.18,14.34 151.89,42.9 34.58,28.69 51.87,71.46 51.87,128.2z"/>
  <path id="23" fill="#464E62" fill-rule="nonzero" d="M11789.83 1017.88l-159.96 -419.56 119.75 0 81.06 239.11c8.97,30.22 14.6,58.91 16.91,85.93l2.18 0c1.28,-24.07 6.91,-52.76 16.9,-85.93l80.81 -239.11 119.62 0 -159.83 419.56 -117.44 0z"/>
  <path id="24" fill="#464E62" fill-rule="nonzero" d="M12303.64 934.12c20.11,0 44.06,-4.35 72.11,-13.19l0 85.42c-28.56,12.81 -63.53,19.21 -105.02,19.21 -45.85,0 -79.15,-11.52 -100.02,-34.7 -20.88,-23.18 -31.38,-57.89 -31.38,-104.12l0 -202.35 -54.69 0 0 -48.54 63.01 -38.3 33.05 -88.49 73.12 0 0 89.26 117.44 0 0 86.07 -117.44 0 0 202.09c0,16.27 4.61,28.3 13.71,35.99 9.09,7.81 21.13,11.65 36.11,11.65z"/>
  <path id="25" fill="#464E62" fill-rule="nonzero" d="M12444.39 964.09c0,-21 5.63,-36.88 16.9,-47.64 11.27,-10.76 27.54,-16.14 49.05,-16.14 20.88,0 36.89,5.51 48.29,16.52 11.39,11.02 17.03,26.77 17.03,47.26 0,19.72 -5.76,35.35 -17.29,46.75 -11.4,11.39 -27.41,17.03 -48.03,17.03 -21,0 -37.26,-5.51 -48.66,-16.65 -11.53,-11.14 -17.29,-26.89 -17.29,-47.13z"/>
  <polygon id="26" fill="#464E62" fill-rule="nonzero" points="12688.62,1017.88 12688.62,469.23 12804.91,469.23 12804.91,921.83 13027.49,921.83 13027.49,1017.88 "/>
  <path id="27" fill="#464E62" fill-rule="nonzero" d="M13290.42 934.12c20.11,0 44.06,-4.35 72.11,-13.19l0 85.42c-28.56,12.81 -63.53,19.21 -105.02,19.21 -45.85,0 -79.15,-11.52 -100.02,-34.7 -20.88,-23.18 -31.38,-57.89 -31.38,-104.12l0 -202.35 -54.69 0 0 -48.54 63.01 -38.3 33.05 -88.49 73.12 0 0 89.26 117.44 0 0 86.07 -117.44 0 0 202.09c0,16.27 4.61,28.3 13.71,35.99 9.09,7.81 21.13,11.65 36.11,11.65z"/>
  <path id="28" fill="#464E62" fill-rule="nonzero" d="M13580.11 1025.56c-49.18,0 -87.98,-19.08 -116.16,-57.37 -28.17,-38.29 -42.13,-91.32 -42.13,-159.19 0,-68.78 14.21,-122.31 42.9,-160.73 28.69,-38.42 68.14,-57.63 118.47,-57.63 52.76,0 93.1,20.49 120.9,61.6l3.71 0c-5.76,-31.38 -8.58,-59.3 -8.58,-83.89l0 -134.47 114.75 0 0 584 -87.73 0 -22.15 -54.17 -4.87 0c-26.13,41.23 -65.7,61.85 -119.11,61.85zm40.22 -91.44c29.33,0 50.71,-8.45 64.42,-25.48 13.57,-17.04 21,-45.85 22.28,-86.71l0 -12.29c0,-45.08 -6.91,-77.23 -20.87,-96.82 -13.84,-19.47 -36.38,-29.2 -67.75,-29.2 -25.49,0 -45.34,10.76 -59.56,32.4 -14.08,21.64 -21.13,53.15 -21.13,94.39 0,41.24 7.17,72.1 21.39,92.72 14.22,20.62 34.71,30.99 61.22,30.99z"/>
  <path id="29" fill="#464E62" fill-rule="nonzero" d="M13917.45 964.09c0,-21 5.63,-36.88 16.9,-47.64 11.27,-10.76 27.54,-16.14 49.05,-16.14 20.88,0 36.89,5.51 48.29,16.52 11.39,11.02 17.03,26.77 17.03,47.26 0,19.72 -5.76,35.35 -17.29,46.75 -11.4,11.39 -27.41,17.03 -48.03,17.03 -21,0 -37.26,-5.51 -48.66,-16.65 -11.53,-11.14 -17.29,-26.89 -17.29,-47.13z"/>
 </g>
</svg>
